<svg xmlns="http://www.w3.org/2000/svg" viewBox="0 0 32 32">
	<g fill="#FFF" fill-rule="evenodd">
		<path d="M16.082.018C6.88-.408-.406 6.878.018 16.079c.372 8.095 7.011 14.554 15.178 14.64.086.001.156.07.156.157v.915c0 .117.096.21.213.209 8.39-.135 15.155-8.223 15.155-16.64C30.72 7.12 24.23.395 16.082.019" fill-opacity=".65"/>
		<path d="M21.967 15.053c.291.027.532.238.51.53a7.144 7.144 0 01-14.247-.016c-.021-.287.211-.5.498-.53 2.383-.247 3.946-.402 6.624-.386 2.214.013 4.315.195 6.615.402"/>
	</g>
</svg>